<svg width="12" height="12" viewBox="0 0 12 12" fill="none" xmlns="http://www.w3.org/2000/svg">
<path d="M9.80156 4.15258C9.675 4.11038 9.54844 4.07058 9.42188 4.03305C9.44297 3.94635 9.46171 3.85961 9.48046 3.77289C9.76875 2.37602 9.5789 1.25336 8.93906 0.883053C8.32265 0.529143 7.31718 0.897153 6.3 1.78305C6.19922 1.86975 6.10078 1.96117 6.00703 2.05258C5.94375 1.99168 5.87812 1.9307 5.8125 1.87211C4.74609 0.925233 3.67734 0.526803 3.0375 0.899453C2.42343 1.2557 2.24062 2.31273 2.49843 3.63461C2.52421 3.76586 2.55234 3.89477 2.58515 4.02602C2.43515 4.06822 2.2875 4.11512 2.14922 4.1643C0.897656 4.59789 0 5.28227 0 5.99008C0 6.72133 0.95625 7.45492 2.25703 7.90023C2.3625 7.93543 2.46797 7.97053 2.57578 8.00102C2.54063 8.14164 2.51016 8.27992 2.48203 8.42289C2.23594 9.72367 2.42813 10.7549 3.04219 11.1088C3.675 11.4745 4.73906 11.0998 5.775 10.1924C5.85703 10.1197 5.93906 10.0448 6.02109 9.96508C6.12422 10.0659 6.23203 10.162 6.33984 10.2557C7.34297 11.1182 8.33437 11.4674 8.94609 11.1135C9.57891 10.7479 9.78516 9.6393 9.51797 8.2893C9.49688 8.18617 9.47344 8.0807 9.44766 7.97289C9.52266 7.95179 9.59531 7.92839 9.66797 7.90489C11.0203 7.45727 12 6.73305 12 5.99008C12 5.27992 11.0766 4.59086 9.80156 4.15258ZM6.63047 2.16273C7.50234 1.40336 8.31563 1.1057 8.68594 1.31898C9.08203 1.54633 9.23437 2.46508 8.98594 3.67211C8.96953 3.75181 8.95312 3.82914 8.93203 3.90648C8.41172 3.7893 7.88438 3.70492 7.35469 3.65805C7.05 3.22211 6.71719 2.80492 6.35625 2.41352C6.44766 2.32682 6.53672 2.24477 6.63047 2.16273ZM3.58359 6.59477C3.69141 6.80102 3.80156 7.00492 3.91875 7.20648C4.03828 7.41039 4.16016 7.6143 4.28906 7.81352C3.92344 7.77362 3.56016 7.71512 3.20156 7.63773C3.30469 7.30023 3.43359 6.95102 3.58359 6.59477ZM3.58359 5.40883C3.43594 5.05961 3.31172 4.71742 3.20859 4.38695C3.54609 4.31195 3.90469 4.25102 4.27734 4.20414C4.15313 4.39867 4.03125 4.59789 3.91641 4.79945C3.80156 4.99867 3.68906 5.20258 3.58359 5.40883ZM3.85078 6.0018C4.00547 5.67836 4.17422 5.36195 4.35234 5.05023C4.53047 4.73852 4.72266 4.43617 4.92422 4.13852C5.27578 4.11272 5.63438 4.09862 6 4.09862C6.36562 4.09862 6.72656 4.11272 7.07578 4.13852C7.275 4.43383 7.46484 4.73617 7.64531 5.04555C7.82578 5.35492 7.99453 5.67133 8.15391 5.99242C7.99687 6.31586 7.82813 6.63461 7.64766 6.94867C7.46953 7.26039 7.27969 7.56273 7.08047 7.86273C6.73125 7.88853 6.36797 7.90023 6 7.90023C5.63203 7.90023 5.27578 7.88853 4.93125 7.86743C4.72734 7.56978 4.53516 7.26509 4.35469 6.95337C4.17422 6.64165 4.00781 6.32523 3.85078 6.0018ZM8.08359 7.2018C8.20312 6.99555 8.31562 6.78695 8.42578 6.57602C8.57578 6.91586 8.70703 7.26039 8.82187 7.6143C8.45859 7.6963 8.09062 7.75961 7.72031 7.8018C7.84687 7.60492 7.96641 7.40336 8.08359 7.2018ZM8.42109 5.40883C8.31094 5.20258 8.19844 4.99633 8.08125 4.79477C7.96641 4.59555 7.84688 4.39867 7.72266 4.20414C8.1 4.25104 8.46094 4.3143 8.79844 4.39164C8.69062 4.73852 8.56406 5.07602 8.42109 5.40883ZM6.00469 2.77211C6.25078 3.0393 6.48281 3.32055 6.69844 3.61117C6.23438 3.59007 5.76797 3.59007 5.30391 3.61117C5.53359 3.30883 5.77031 3.02758 6.00469 2.77211ZM3.28594 1.33539C3.67969 1.1057 4.55391 1.43379 5.475 2.24945C5.53359 2.30105 5.59219 2.35727 5.65312 2.41352C5.28984 2.80492 4.95469 3.22211 4.64766 3.65805C4.11797 3.70495 3.59297 3.78695 3.07266 3.9018C3.04219 3.78227 3.01641 3.66039 2.99063 3.53852C2.77031 2.40414 2.91562 1.54867 3.28594 1.33539ZM2.71172 7.51352C2.61328 7.48542 2.51719 7.45492 2.42109 7.42212C1.92188 7.26509 1.35469 7.01665 0.944531 6.69087C0.707813 6.52681 0.548438 6.27368 0.503906 5.99009C0.503906 5.56118 1.24453 5.01274 2.31328 4.64009C2.44687 4.59319 2.58281 4.55099 2.71875 4.51118C2.87812 5.01978 3.07031 5.51899 3.29297 6.00181C3.06797 6.49165 2.87344 6.99789 2.71172 7.51352ZM5.44453 9.81039C5.05781 10.1643 4.61016 10.4456 4.12266 10.6377C3.8625 10.762 3.5625 10.7737 3.29531 10.6682C2.92266 10.4526 2.76797 9.62526 2.97891 8.51198C3.00469 8.38073 3.03281 8.24948 3.06563 8.12058C3.59063 8.23308 4.12031 8.31042 4.65703 8.35026C4.96641 8.78855 5.30625 9.20808 5.66953 9.60183C5.59453 9.67453 5.51953 9.74477 5.44453 9.81039ZM6.01875 9.24086C5.77969 8.98305 5.54063 8.69711 5.30859 8.39008C5.53359 8.39908 5.76562 8.40418 6 8.40418C6.24141 8.40418 6.47813 8.39918 6.7125 8.38778C6.49688 8.68544 6.26484 8.96898 6.01875 9.24086ZM9.08203 9.94398C9.06094 10.2299 8.92031 10.4971 8.69531 10.6776C8.32266 10.8932 7.52812 10.612 6.67031 9.87602C6.57188 9.79162 6.47344 9.70023 6.37266 9.60648C6.73125 9.21039 7.06172 8.79086 7.36172 8.35023C7.89844 8.30573 8.43281 8.22367 8.96016 8.10414C8.98359 8.20024 9.00469 8.29633 9.02344 8.39008C9.13828 8.89633 9.15704 9.42367 9.08203 9.94398ZM9.50859 7.42445C9.44296 7.44555 9.37734 7.46665 9.30937 7.48535C9.14531 6.97441 8.94375 6.47519 8.71172 5.99004C8.93672 5.51191 9.12656 5.01973 9.28594 4.51582C9.40781 4.55102 9.525 4.58852 9.6375 4.62598C10.7297 5.00098 11.4961 5.55879 11.4961 5.98535C11.4961 6.44473 10.6781 7.03773 9.50859 7.42445ZM6 4.92602C6.59297 4.92602 7.07344 5.40648 7.07344 5.99945C7.07344 6.59242 6.59297 7.07289 6 7.07289C5.40703 7.07289 4.92656 6.59242 4.92656 5.99945C4.92656 5.40648 5.40703 4.92602 6 4.92602Z" fill="url(#paint0_linear_196_13)"/>
<defs>
<linearGradient id="paint0_linear_196_13" x1="6" y1="0.749756" x2="6" y2="11.2503" gradientUnits="userSpaceOnUse">
<stop stop-color="#D805A9"/>
<stop offset="1" stop-color="#FAFF00"/>
</linearGradient>
</defs>
</svg>
