<svg width="300" height="360" viewBox="0 0 300 360" fill="none" xmlns="http://www.w3.org/2000/svg">
<rect width="300" height="360" fill="#404ECF"/>
<path d="M51 257.418C51 248.273 61.2651 242.885 68.792 248.08L131.914 291.645C142.095 298.672 155.545 298.729 165.785 291.789L230.548 247.899C238.142 242.752 248.4 248.192 248.4 257.366V257.366C248.4 264.739 241.526 270.185 234.348 268.499L209.274 262.608C169.509 253.265 128.111 253.35 88.3848 262.855L64.9871 268.453C57.8539 270.16 51 264.753 51 257.418V257.418Z" fill="#D9D9D9"/>
<rect x="225.6" y="99.6" width="36" height="36" rx="18" fill="#D9D9D9"/>
<rect x="38.3999" y="99.6" width="36" height="36" rx="18" fill="#D9D9D9"/>
<rect x="117.6" y="174" width="15.6" height="15.6" rx="7.8" fill="#D9D9D9"/>
<rect x="243" y="117" width="15.6" height="15.6" rx="7.8" fill="black"/>
<rect x="43" y="100" width="15.6" height="15.6" rx="7.8" fill="black"/>
<rect x="163.2" y="174" width="15.6" height="15.6" rx="7.8" fill="#D9D9D9"/>
<path d="M90.0639 28.2595L90.0538 28.2278L99.8711 58.7995C101.859 64.9888 97.3106 71.3417 90.811 71.4551V71.4551C84.3098 71.5686 79.5426 65.3753 81.3159 59.1196L90.0639 28.2595Z" fill="#560C4F"/>
<path d="M119.976 331.08C119.469 331.32 118.976 331.507 118.496 331.64C118.016 331.773 117.456 331.907 116.816 332.04C115.136 332.387 113.922 332.587 113.176 332.64C113.256 332.907 113.656 333.227 114.376 333.6C114.856 333.68 115.376 333.613 115.936 333.4C116.522 333.16 117.122 332.947 117.736 332.76C118.376 332.547 118.989 332.427 119.576 332.4C120.189 332.373 120.762 332.6 121.296 333.08C121.509 333.56 121.682 333.84 121.816 333.92C121.949 334 122.069 334.04 122.176 334.04C122.282 334.04 122.402 334.08 122.536 334.16C122.669 334.24 122.856 334.547 123.096 335.08C123.362 335.613 123.296 336.12 122.896 336.6C122.522 337.08 121.936 337.493 121.136 337.84C120.336 338.187 119.402 338.467 118.336 338.68C117.269 338.893 116.202 339.04 115.136 339.12C112.736 339.307 110.909 339.12 109.656 338.56C107.842 337.947 106.669 336.733 106.136 334.92C105.442 332.52 105.829 329.72 107.296 326.52C107.962 325.027 109.016 323.427 110.456 321.72C111.709 320.227 113.109 319.147 114.656 318.48C116.442 317.707 118.309 317.347 120.256 317.4C122.336 317.453 123.776 318.36 124.576 320.12C124.976 321.053 125.056 322.36 124.816 324.04C124.389 326.227 123.829 327.773 123.136 328.68C122.442 329.56 121.389 330.36 119.976 331.08ZM117.656 324.76C116.242 324.467 115.136 325.267 114.336 327.16C114.096 327.667 113.909 328.2 113.776 328.76C114.682 328.867 115.642 328.36 116.656 327.24C117.029 326.787 117.309 326.333 117.496 325.88C117.682 325.4 117.736 325.027 117.656 324.76ZM129.473 320.44C129.846 319.48 130.366 318.76 131.033 318.28C131.726 317.773 132.379 317.467 132.993 317.36C133.633 317.227 134.153 317.293 134.553 317.56C134.979 317.827 135.126 318.24 134.993 318.8C135.499 318.293 136.233 317.827 137.193 317.4C138.153 316.973 138.913 316.68 139.473 316.52C140.033 316.36 140.513 316.28 140.913 316.28C141.793 316.333 142.046 316.813 141.673 317.72C142.126 317.8 142.459 318.093 142.673 318.6C142.886 319.107 142.913 319.667 142.753 320.28C142.593 320.893 142.233 321.493 141.673 322.08C141.113 322.667 140.353 323.067 139.393 323.28C138.459 323.493 137.673 323.987 137.033 324.76C136.419 325.507 135.873 326.44 135.393 327.56C134.593 329.453 133.873 332.133 133.233 335.6C133.019 336.853 132.153 337.907 130.633 338.76C129.193 339.587 127.873 339.827 126.673 339.48C125.312 339.107 124.712 338.107 124.872 336.48C124.926 335.333 125.272 333.813 125.913 331.92C126.553 330 127.046 328.56 127.393 327.6C127.739 326.613 127.979 325.867 128.113 325.36L129.473 320.44ZM145.371 320.44C145.744 319.48 146.264 318.76 146.931 318.28C147.624 317.773 148.278 317.467 148.891 317.36C149.531 317.227 150.051 317.293 150.451 317.56C150.878 317.827 151.024 318.24 150.891 318.8C151.398 318.293 152.131 317.827 153.091 317.4C154.051 316.973 154.811 316.68 155.371 316.52C155.931 316.36 156.411 316.28 156.811 316.28C157.691 316.333 157.944 316.813 157.571 317.72C158.024 317.8 158.358 318.093 158.571 318.6C158.784 319.107 158.811 319.667 158.651 320.28C158.491 320.893 158.131 321.493 157.571 322.08C157.011 322.667 156.251 323.067 155.291 323.28C154.358 323.493 153.571 323.987 152.931 324.76C152.318 325.507 151.771 326.44 151.291 327.56C150.491 329.453 149.771 332.133 149.131 335.6C148.918 336.853 148.051 337.907 146.531 338.76C145.091 339.587 143.771 339.827 142.571 339.48C141.211 339.107 140.611 338.107 140.771 336.48C140.824 335.333 141.171 333.813 141.811 331.92C142.451 330 142.944 328.56 143.291 327.6C143.638 326.613 143.878 325.867 144.011 325.36L145.371 320.44ZM162.709 319.92C163.269 319.52 163.963 319.427 164.789 319.64C164.949 319.667 165.109 319.68 165.269 319.68C165.856 318.48 166.869 317.853 168.309 317.8C168.683 317.773 169.203 317.707 169.869 317.6C170.536 317.493 171.336 317.52 172.269 317.68C173.229 317.84 174.069 318.12 174.789 318.52C176.363 319.373 177.309 320.6 177.629 322.2C178.269 324.547 178.176 327.107 177.349 329.88C176.469 332.947 174.976 335.4 172.869 337.24C171.909 338.093 170.896 338.627 169.829 338.84C168.763 339.08 167.803 339.213 166.949 339.24C166.096 339.267 165.309 339.267 164.589 339.24C163.896 339.24 163.216 339.173 162.549 339.04C161.109 338.747 159.923 338.067 158.989 337C157.896 335.8 157.429 333.933 157.589 331.4C157.696 329.16 158.256 326.907 159.269 324.64C160.309 322.347 161.456 320.773 162.709 319.92ZM169.749 327.96C169.083 328.173 168.456 328.267 167.869 328.24C167.576 328.533 167.309 328.853 167.069 329.2C166.856 329.52 166.563 329.827 166.189 330.12C165.816 330.387 165.629 330.493 165.629 330.44C165.176 331.08 164.803 331.747 164.509 332.44C164.216 333.107 164.216 333.787 164.509 334.48C165.576 334.587 166.363 334.56 166.869 334.4C167.376 334.24 167.843 333.933 168.269 333.48C168.723 333.027 169.069 332.493 169.309 331.88C169.789 330.733 169.936 329.427 169.749 327.96ZM182.246 320.44C182.619 319.48 183.139 318.76 183.806 318.28C184.499 317.773 185.153 317.467 185.766 317.36C186.406 317.227 186.926 317.293 187.326 317.56C187.753 317.827 187.899 318.24 187.766 318.8C188.273 318.293 189.006 317.827 189.966 317.4C190.926 316.973 191.686 316.68 192.246 316.52C192.806 316.36 193.286 316.28 193.686 316.28C194.566 316.333 194.819 316.813 194.446 317.72C194.899 317.8 195.233 318.093 195.446 318.6C195.659 319.107 195.686 319.667 195.526 320.28C195.366 320.893 195.006 321.493 194.446 322.08C193.886 322.667 193.126 323.067 192.166 323.28C191.233 323.493 190.446 323.987 189.806 324.76C189.193 325.507 188.646 326.44 188.166 327.56C187.366 329.453 186.646 332.133 186.006 335.6C185.793 336.853 184.926 337.907 183.406 338.76C181.966 339.587 180.646 339.827 179.446 339.48C178.086 339.107 177.486 338.107 177.646 336.48C177.699 335.333 178.046 333.813 178.686 331.92C179.326 330 179.819 328.56 180.166 327.6C180.513 326.613 180.753 325.867 180.886 325.36L182.246 320.44Z" fill="#FF0000"/>
</svg>
