<svg width="48" height="48" viewBox="0 0 48 48" fill="none" xmlns="http://www.w3.org/2000/svg">
<path d="M8 37L23.234 8.43604C23.555 7.83404 24.423 7.84504 24.728 8.45604L30 19L8 37Z" fill="#FF8F00"/>
<path d="M8 36.992L13.546 2.79304C13.691 1.89804 14.893 1.70404 15.313 2.50804L26 22.992L8 36.992Z" fill="#FFA000"/>
<path d="M8.00781 36.986L8.20781 36.829L25.7368 22.488L20.7928 13.012L8.00781 36.986Z" fill="#FF6F00"/>
<path d="M8 37L34.666 11.287C35.225 10.748 36.158 11.066 36.272 11.834L40 37L25 45.743C24.391 46.085 23.648 46.085 23.039 45.743L8 37Z" fill="#FFC400"/>
</svg>
