<svg width="48" height="48" viewBox="0 0 48 48" fill="none" xmlns="http://www.w3.org/2000/svg">
<g clip-path="url(#clip0_910_44)">
<path fill-rule="evenodd" clip-rule="evenodd" d="M23.9921 0C18.2944 0.00304823 12.7835 2.08388 8.4449 5.87041C4.10628 9.65694 1.2228 14.9023 0.310063 20.6685C-0.602676 26.4346 0.514832 32.3457 3.46279 37.3447C6.41075 42.3436 10.9969 46.1045 16.4012 47.9548C17.5935 48.183 18.0426 47.421 18.0426 46.7732C18.0426 46.1253 18.0187 44.2469 18.0108 42.1932C11.334 43.6805 9.92317 39.288 9.92317 39.288C8.83422 36.4357 7.26041 35.686 7.26041 35.686C5.08252 34.162 7.42337 34.1906 7.42337 34.1906C9.83575 34.3658 11.1035 36.7291 11.1035 36.7291C13.2417 40.49 16.7191 39.4021 18.0863 38.7664C18.3009 37.1732 18.9249 36.0894 19.6124 35.4741C14.279 34.8547 8.67525 32.7441 8.67525 23.3153C8.64219 20.87 9.52724 18.5052 11.1472 16.7102C10.9008 16.0909 10.0782 13.589 11.3817 10.1908C11.3817 10.1908 13.3967 9.53066 17.983 12.713C21.9168 11.61 26.0673 11.61 30.0011 12.713C34.5835 9.53066 36.5944 10.1908 36.5944 10.1908C37.902 13.5809 37.0793 16.0827 36.8329 16.7102C38.458 18.5055 39.3449 20.8744 39.3089 23.3234C39.3089 32.7726 33.6932 34.8547 28.3518 35.4619C29.2103 36.2279 29.9773 37.7233 29.9773 40.0214C29.9773 43.3138 29.9495 45.9623 29.9495 46.7732C29.9495 47.4292 30.3827 48.1952 31.5988 47.9548C37.0037 46.1043 41.5903 42.3427 44.5382 37.3429C47.4862 32.3431 48.6031 26.4312 47.6893 20.6644C46.7755 14.8977 43.8906 9.65234 39.5506 5.86646C35.2105 2.08057 29.6984 0.00111611 24 0H23.9921Z" fill="white"/>
<path d="M9.08887 35.264C9.03721 35.3826 8.84645 35.4181 8.69146 35.3351C8.53646 35.2522 8.42122 35.098 8.47686 34.9755C8.5325 34.853 8.71928 34.8214 8.87428 34.9044C9.02927 34.9874 9.14848 35.1455 9.08887 35.264Z" fill="white"/>
<path d="M10.0626 36.3428C9.98028 36.384 9.88612 36.3955 9.79622 36.3753C9.70632 36.3551 9.62629 36.3045 9.56979 36.2321C9.41479 36.0662 9.38298 35.837 9.50221 35.7342C9.62143 35.6315 9.83606 35.6789 9.99105 35.8449C10.146 36.0108 10.1818 36.24 10.0626 36.3428Z" fill="white"/>
<path d="M11.0085 37.7139C10.8614 37.8167 10.6111 37.7139 10.472 37.5085C10.4335 37.4716 10.4029 37.4274 10.382 37.3785C10.3611 37.3296 10.3503 37.2771 10.3503 37.2239C10.3503 37.1708 10.3611 37.1183 10.382 37.0694C10.4029 37.0205 10.4335 36.9763 10.472 36.9394C10.619 36.8406 10.8694 36.9394 11.0085 37.141C11.1476 37.3425 11.1516 37.6112 11.0085 37.7139Z" fill="white"/>
<path d="M12.2921 39.0417C12.161 39.1879 11.8947 39.1484 11.6761 38.9508C11.4575 38.7532 11.4059 38.4845 11.537 38.3423C11.6682 38.2 11.9344 38.2395 12.161 38.4331C12.3875 38.6268 12.4312 38.8994 12.2921 39.0417Z" fill="white"/>
<path d="M14.0923 39.8162C14.0327 40.0019 13.7625 40.0849 13.4922 40.0058C13.222 39.9268 13.0432 39.7055 13.0948 39.5158C13.1465 39.3262 13.4207 39.2392 13.6949 39.3262C13.9691 39.4131 14.144 39.6225 14.0923 39.8162Z" fill="white"/>
<path d="M16.0557 39.9505C16.0557 40.1442 15.8331 40.3101 15.547 40.3141C15.2608 40.318 15.0264 40.16 15.0264 39.9663C15.0264 39.7727 15.2489 39.6067 15.535 39.6028C15.8212 39.5988 16.0557 39.753 16.0557 39.9505Z" fill="white"/>
<path d="M17.8838 39.6463C17.9196 39.8399 17.7208 40.0414 17.4347 40.0888C17.1486 40.1363 16.8982 40.0217 16.8624 39.832C16.8267 39.6423 17.0333 39.4368 17.3115 39.3855C17.5897 39.3341 17.848 39.4526 17.8838 39.6463Z" fill="white"/>
</g>
<defs>
<clipPath id="clip0_910_44">
<rect width="48" height="48" fill="white"/>
</clipPath>
</defs>
</svg>
