<svg width="18" height="18" viewBox="0 0 18 18" fill="none" xmlns="http://www.w3.org/2000/svg">
<g clip-path="url(#clip0_206_12)">
<path d="M9.49747 3.33228C9.3692 3.44413 9.24349 3.55751 9.12019 3.67234C9.04192 3.59383 8.96206 3.51786 8.88223 3.44191C7.58722 2.23347 6.26865 1.72457 5.45333 2.18977C4.67089 2.63975 4.39953 3.97755 4.67099 5.65902C4.69674 5.82493 4.72906 5.99129 4.76446 6.1525C4.65801 6.183 4.54994 6.21602 4.44441 6.25057C2.73506 6.81531 1.6072 7.73295 1.58171 8.67273C1.55577 9.57375 2.559 10.4494 4.13415 11.011C4.29067 11.0666 4.44625 11.1181 4.6074 11.166C4.55341 11.3574 4.50597 11.5493 4.46712 11.7324C4.1033 13.382 4.2393 14.8036 4.99176 15.2558C5.76913 15.7229 7.17915 15.1427 8.50975 14.0005C8.61667 13.9073 8.72349 13.8141 8.82695 13.7153C8.95327 13.8437 9.08019 13.9654 9.21364 14.0876C10.4343 15.1884 11.6572 15.6363 12.4381 15.1889C13.2438 14.7284 13.5468 13.3221 13.2648 11.6064C13.2416 11.47 13.216 11.3321 13.1853 11.1913C13.3604 11.1425 13.5336 11.0857 13.7043 11.0273C15.2823 10.4781 16.3068 9.61382 16.3337 8.71687C16.362 7.78929 15.3194 6.85496 13.7082 6.28567C13.5847 6.24293 13.4571 6.20127 13.3255 6.16068C13.3525 6.06494 13.3755 5.97031 13.3984 5.87562C13.8137 4.10653 13.6894 2.56946 12.8996 2.09488C12.1447 1.64126 10.8036 2.21389 9.49747 3.33228ZM5.29239 5.5391C5.05968 4.09783 5.27919 3.01574 5.74995 2.74584C6.25266 2.45665 7.32976 2.87643 8.4492 3.9199C8.52312 3.9888 8.59451 4.05619 8.66283 4.12873C8.19538 4.62452 7.75817 5.14898 7.35928 5.69997C6.69506 5.75568 6.03224 5.8542 5.3783 6.00004C5.34636 5.84442 5.31783 5.69433 5.29239 5.5391ZM7.99613 11.7117C8.28644 11.7252 8.57579 11.7347 8.86729 11.7349C9.16283 11.7341 9.45992 11.7306 9.75665 11.7165C9.47329 12.092 9.1717 12.4531 8.85312 12.7969C8.56229 12.4682 8.276 12.1038 7.99613 11.7117ZM6.73539 10.9542C6.26684 10.8931 5.82121 10.8107 5.40193 10.7128C5.54461 10.2947 5.71615 9.86249 5.91189 9.42384C6.03683 9.68433 6.1683 9.94525 6.30689 10.2C6.443 10.4532 6.58563 10.7068 6.73539 10.9542ZM7.54183 11.0399C7.29993 10.6637 7.07477 10.2765 6.86077 9.88203C6.64678 9.48757 6.45201 9.08366 6.26841 8.67247C6.47266 8.27042 6.69398 7.86813 6.93492 7.46713C7.17586 7.06614 7.4287 6.67929 7.68626 6.31277C8.13148 6.28291 8.578 6.26782 9.02582 6.26751C9.47363 6.2672 9.9212 6.28423 10.3676 6.31454C10.6079 6.69336 10.8356 7.08204 11.0505 7.48058C11.2645 7.87505 11.4608 8.27638 11.6485 8.6865C11.4458 9.08598 11.2188 9.49188 10.9763 9.89545C10.7338 10.299 10.4866 10.6823 10.2372 11.0466C9.78636 11.0801 9.3358 11.0963 8.88549 11.0951C8.43518 11.0939 7.98915 11.0743 7.54183 11.0399ZM11.6069 7.16416C11.4664 6.90132 11.3188 6.64469 11.1671 6.38915C11.6273 6.44171 12.08 6.51784 12.5319 6.61795C12.3797 7.06875 12.2045 7.51275 12.0053 7.94584C11.8794 7.68128 11.7439 7.42143 11.6069 7.16416ZM9.92324 5.64873C9.63139 5.6378 9.338 5.62944 9.0465 5.62922C8.75903 5.62792 8.47096 5.63325 8.1823 5.64523C8.48083 5.26134 8.78593 4.90589 9.09056 4.58514C9.38827 4.92496 9.66365 5.27935 9.92324 5.64873ZM5.52783 6.61467C5.97404 6.51544 6.42594 6.44061 6.87699 6.38976C6.54874 6.88524 6.24139 7.39677 5.95801 7.9192C5.78796 7.47417 5.64496 7.0349 5.52783 6.61467ZM2.20887 8.67871C2.22416 8.10015 3.14905 7.35093 4.62314 6.86174C4.71661 6.83044 4.81499 6.80209 4.91495 6.77119C5.09164 7.41962 5.31428 8.05369 5.57538 8.66888C5.27618 9.27977 5.01739 9.90794 4.7966 10.5519C4.64945 10.509 4.5029 10.4594 4.35635 10.4099C3.00524 9.92689 2.19157 9.22108 2.20887 8.67871ZM8.39828 13.2548C8.30354 13.3448 8.20779 13.4307 8.10959 13.5152C7.61368 13.9624 6.9758 14.4257 6.35918 14.6675C6.02878 14.8223 5.65466 14.8354 5.32384 14.7031C4.86787 14.4291 4.7729 13.2665 5.08104 11.8564C5.11922 11.6799 5.16394 11.5039 5.2112 11.3293C5.8569 11.4794 6.51425 11.5875 7.17425 11.6517C7.54672 12.2114 7.95669 12.7481 8.39828 13.2548ZM12.6409 11.7248C12.7623 12.375 12.7663 13.0456 12.6493 13.703C12.61 14.0677 12.4247 14.4042 12.1366 14.6299C11.6618 14.9008 10.6803 14.542 9.63579 13.5996C9.51325 13.4874 9.39225 13.3728 9.27685 13.2544C9.74241 12.7505 10.1737 12.219 10.5697 11.6558C11.2395 11.5965 11.9095 11.4917 12.5675 11.3448C12.5953 11.4735 12.6206 11.6006 12.6409 11.7248ZM12.4139 10.7312C11.9823 10.8287 11.5207 10.9083 11.0414 10.9666C11.1993 10.7256 11.3576 10.4744 11.5121 10.2174C11.6711 9.95259 11.8218 9.68978 11.9641 9.42545C12.1385 9.85207 12.287 10.2877 12.4139 10.7312ZM15.18 7.82073C15.4701 8.0265 15.6614 8.35141 15.705 8.71345C15.6887 9.25989 14.8661 9.95165 13.5185 10.4223C13.3639 10.4764 13.2018 10.526 13.0358 10.5766C12.851 9.93033 12.6228 9.29992 12.3521 8.68944C12.6584 8.07237 12.9233 7.43389 13.1438 6.77918C13.2614 6.81486 13.3775 6.8531 13.4895 6.89242C14.1033 7.08984 14.6763 7.40611 15.18 7.82073ZM12.7826 5.74352C12.7618 5.82898 12.741 5.91443 12.7161 6.00092C12.0648 5.85448 11.4013 5.75666 10.7326 5.70125C10.3726 5.14907 9.97449 4.62647 9.54383 4.1298C9.66156 4.01862 9.77865 3.91405 9.89261 3.8146C11.011 2.85629 12.109 2.37205 12.5625 2.64452C13.0509 2.93795 13.1422 4.21383 12.7826 5.74352ZM7.81451 7.99564C8.20527 7.34531 9.03265 7.12526 9.66303 7.50402C10.2934 7.88279 10.4875 8.71664 10.0968 9.36698C9.70603 10.0173 8.87863 10.2374 8.24826 9.85859C7.61789 9.47982 7.42375 8.64597 7.81451 7.99564Z" fill="#34D9EF"/>
</g>
<defs>
<clipPath id="clip0_206_12">
<rect width="17.9129" height="17.3631" fill="white"/>
</clipPath>
</defs>
</svg>
