<svg width="48" height="48" viewBox="0 0 48 48" fill="none" xmlns="http://www.w3.org/2000/svg">
<path d="M24.007 45.4189C23.433 45.4189 22.864 45.2689 22.361 44.9789L17.121 41.8759C16.338 41.4379 16.72 41.2829 16.978 41.1939C18.022 40.8289 18.233 40.7459 19.347 40.1129C19.464 40.0459 19.617 40.0699 19.737 40.1409L23.763 42.5299C23.908 42.6089 24.115 42.6089 24.249 42.5299L39.946 33.4689C40.091 33.3859 40.186 33.2179 40.186 33.0449V14.9319C40.186 14.7509 40.092 14.5899 39.943 14.4999L24.253 5.44594C24.108 5.35994 23.915 5.35994 23.77 5.44594L8.082 14.4989C7.93 14.5849 7.833 14.7539 7.833 14.9269V33.0409C7.833 33.2139 7.927 33.3789 8.077 33.4609L12.376 35.9439C14.71 37.1109 16.136 35.7359 16.136 34.3529V16.4759C16.136 16.2209 16.336 16.0239 16.592 16.0239H18.58C18.828 16.0239 19.032 16.2199 19.032 16.4759V34.3619C19.032 37.4739 17.335 39.2619 14.384 39.2619C13.476 39.2619 12.761 39.2619 10.765 38.2799L6.647 35.9069C5.629 35.3169 5 34.2159 5 33.0419V14.9279C5 13.7489 5.629 12.6489 6.646 12.0669L22.36 3.00194C23.354 2.43994 24.674 2.43994 25.661 3.00194L41.355 12.0709C42.367 12.6559 43 13.7529 43 14.9319V33.0459C43 34.2209 42.367 35.3169 41.354 35.9069L25.66 44.9709C25.157 45.2619 24.587 45.4109 24.006 45.4109" fill="#21A366"/>
<path d="M28.8559 32.937C21.9879 32.937 20.5479 29.784 20.5479 27.14C20.5479 26.889 20.7509 26.688 21.0029 26.688H23.0309C23.2549 26.688 23.4439 26.851 23.4789 27.072C23.7849 29.138 24.6969 30.18 28.8499 30.18C32.1579 30.18 33.5648 29.433 33.5648 27.678C33.5648 26.668 33.1639 25.918 28.0249 25.415C23.7259 24.991 21.0699 24.044 21.0699 20.606C21.0699 17.439 23.7419 15.553 28.2169 15.553C33.2429 15.553 35.7339 17.298 36.0479 21.046C36.0599 21.176 36.0128 21.301 35.9258 21.396C35.8398 21.486 35.7179 21.541 35.5919 21.541H33.5529C33.3409 21.541 33.1559 21.392 33.1129 21.187C32.6219 19.014 31.4349 18.319 28.2089 18.319C24.5979 18.319 24.1779 19.576 24.1779 20.519C24.1779 21.662 24.6729 21.996 29.5449 22.641C34.3699 23.281 36.6609 24.185 36.6609 27.576C36.6609 30.994 33.8079 32.955 28.8339 32.955" fill="#21A366"/>
</svg>
