<svg width="26" height="26" viewBox="0 0 26 26" fill="none" xmlns="http://www.w3.org/2000/svg">
<path fill-rule="evenodd" clip-rule="evenodd" d="M8 9.5C8 7.61438 8 6.67157 8.58579 6.08579C9.17157 5.5 10.1144 5.5 12 5.5H14C15.8856 5.5 16.8284 5.5 17.4142 6.08579C18 6.67157 18 7.61438 18 9.5V16.5C18 18.3856 18 19.3284 17.4142 19.9142C16.8284 20.5 15.8856 20.5 14 20.5H12C10.1144 20.5 9.17157 20.5 8.58579 19.9142C8 19.3284 8 18.3856 8 16.5V9.5ZM10.8333 7.16667C10.8333 6.89052 11.0572 6.66667 11.3333 6.66667H14.6667C14.9428 6.66667 15.1667 6.89052 15.1667 7.16667C15.1667 7.44281 14.9428 7.66667 14.6667 7.66667H11.3333C11.0572 7.66667 10.8333 7.44281 10.8333 7.16667ZM13 18.8333C13.4602 18.8333 13.8333 18.4602 13.8333 18C13.8333 17.5398 13.4602 17.1667 13 17.1667C12.5398 17.1667 12.1667 17.5398 12.1667 18C12.1667 18.4602 12.5398 18.8333 13 18.8333Z" fill="white"/>
<circle cx="13" cy="13" r="12" stroke="white" stroke-width="2"/>
</svg>
