<svg width="26" height="26" viewBox="0 0 26 26" fill="none" xmlns="http://www.w3.org/2000/svg">
<circle cx="13" cy="13" r="12" stroke="white" stroke-width="2"/>
<path d="M12.416 17.552C11.8 18.028 11.2307 18.266 10.708 18.266C10.1853 18.266 9.798 18.112 9.546 17.804C9.294 17.496 9.168 17.0993 9.168 16.614C9.168 16.1193 9.36867 15.6667 9.77 15.256C10.1807 14.836 10.7313 14.626 11.422 14.626C11.6367 14.626 11.8467 14.6493 12.052 14.696C12.8453 14.024 13.438 13.4407 13.83 12.946C14.222 12.4513 14.418 12.022 14.418 11.658C14.418 11.2847 14.3153 11 14.11 10.804C13.914 10.608 13.648 10.51 13.312 10.51C12.7613 10.51 12.3227 10.7667 11.996 11.28C11.8373 11.5133 11.6973 11.8073 11.576 12.162C11.156 12.1153 10.8387 11.9707 10.624 11.728C10.4093 11.4853 10.302 11.182 10.302 10.818C10.302 10.118 10.638 9.50667 11.31 8.984C11.9913 8.46133 13.0227 8.2 14.404 8.2C15.5333 8.2 16.378 8.47067 16.938 9.012C17.5073 9.544 17.792 10.16 17.792 10.86C17.792 12.1013 16.686 13.59 14.474 15.326C15.2767 15.4567 15.9067 15.522 16.364 15.522L18.002 14.892C18.1047 15.3213 18.156 15.7133 18.156 16.068C18.156 16.8333 17.946 17.4073 17.526 17.79C17.106 18.1633 16.5973 18.35 16 18.35C15.4027 18.35 14.8473 18.2847 14.334 18.154C13.83 18.0327 13.1907 17.832 12.416 17.552Z" fill="white"/>
</svg>
