<svg width="26" height="26" viewBox="0 0 26 26" fill="none" xmlns="http://www.w3.org/2000/svg">
<circle cx="13" cy="13" r="12" stroke="white" stroke-width="2"/>
<path d="M11.52 15.97C11.52 15.3913 11.716 14.122 12.108 12.162C11.4733 12.162 10.9273 11.9847 10.47 11.63C10.022 11.2753 9.75133 10.7247 9.658 9.978C10.414 9.82867 11.128 9.60467 11.8 9.306C12.4813 8.998 13.0507 8.73667 13.508 8.522C13.9653 8.30733 14.376 8.2 14.74 8.2C15.4027 8.2 15.734 8.57333 15.734 9.32C15.734 9.77733 15.552 10.8413 15.188 12.512C14.824 14.1733 14.642 15.3633 14.642 16.082C14.642 16.7913 14.7773 17.3747 15.048 17.832C14.4227 18.1773 13.8253 18.35 13.256 18.35C12.0987 18.35 11.52 17.5567 11.52 15.97Z" fill="white"/>
</svg>
