<svg width="26" height="26" viewBox="0 0 26 26" fill="none" xmlns="http://www.w3.org/2000/svg">
<circle cx="13" cy="13" r="12" stroke="white" stroke-width="2"/>
<path d="M11.758 20.184C10.834 20.184 10.12 20.044 9.616 19.764C9.112 19.4933 8.86 19.1247 8.86 18.658C8.86 18.1913 9.01867 17.8367 9.336 17.594C9.65333 17.342 10.0033 17.216 10.386 17.216C10.7687 17.216 11.1327 17.3187 11.478 17.524C11.8233 17.7293 12.108 18.0233 12.332 18.406C12.7707 18.2847 13.1627 18.0327 13.508 17.65C13.8627 17.258 14.04 16.8473 14.04 16.418C14.04 15.9887 13.8673 15.606 13.522 15.27C12.9527 15.5967 12.3693 15.76 11.772 15.76C11.0253 15.76 10.652 15.4147 10.652 14.724C10.652 14.332 10.8247 14.0053 11.17 13.744C11.5247 13.4733 12.052 13.338 12.752 13.338C13.004 13.338 13.2 13.3473 13.34 13.366C13.592 13.17 13.788 12.9227 13.928 12.624C14.0773 12.316 14.152 12.0033 14.152 11.686C14.152 11.3593 14.054 11.0887 13.858 10.874C13.662 10.65 13.396 10.538 13.06 10.538C12.7333 10.538 12.4067 10.6687 12.08 10.93C11.7533 11.1913 11.5107 11.6067 11.352 12.176C10.8387 12.148 10.456 12.0127 10.204 11.77C9.952 11.518 9.826 11.2007 9.826 10.818C9.826 10.118 10.162 9.50667 10.834 8.984C11.5153 8.46133 12.5233 8.2 13.858 8.2C14.4833 8.2 15.02 8.27933 15.468 8.438C15.916 8.58733 16.2567 8.788 16.49 9.04C16.9287 9.52533 17.148 10.0713 17.148 10.678C17.148 11.7793 16.5507 12.8993 15.356 14.038C16.56 14.6167 17.162 15.4567 17.162 16.558C17.162 17.5567 16.6627 18.4107 15.664 19.12C14.6747 19.8293 13.3727 20.184 11.758 20.184Z" fill="white"/>
</svg>
