<svg width="50" height="50" viewBox="0 0 50 50" fill="none" xmlns="http://www.w3.org/2000/svg">
<path d="M39 7.5C39.2761 7.5 39.5 7.27614 39.5 7C39.5 6.72386 39.2761 6.5 39 6.5C38.7239 6.5 38.5 6.72386 38.5 7C38.5 7.27614 38.7239 7.5 39 7.5Z" fill="#F1BC19"/>
<path d="M25 44C35.4934 44 44 35.4934 44 25C44 14.5066 35.4934 6 25 6C14.5066 6 6 14.5066 6 25C6 35.4934 14.5066 44 25 44Z" fill="#F9DBD2"/>
<path d="M42 10C43.1046 10 44 9.10457 44 8C44 6.89543 43.1046 6 42 6C40.8954 6 40 6.89543 40 8C40 9.10457 40.8954 10 42 10Z" fill="#F1BC19"/>
<path d="M7 14C7.55228 14 8 13.5523 8 13C8 12.4477 7.55228 12 7 12C6.44772 12 6 12.4477 6 13C6 13.5523 6.44772 14 7 14Z" fill="#EE3E54"/>
<path d="M39 39.5C39.5523 39.5 40 39.0523 40 38.5C40 37.9477 39.5523 37.5 39 37.5C38.4477 37.5 38 37.9477 38 38.5C38 39.0523 38.4477 39.5 39 39.5Z" fill="#FBCD59"/>
<path d="M8.5 41C9.60457 41 10.5 40.1046 10.5 39C10.5 37.8954 9.60457 37 8.5 37C7.39543 37 6.5 37.8954 6.5 39C6.5 40.1046 7.39543 41 8.5 41Z" fill="#FBCD59"/>
<path d="M12 42.5C12.5523 42.5 13 42.0523 13 41.5C13 40.9477 12.5523 40.5 12 40.5C11.4477 40.5 11 40.9477 11 41.5C11 42.0523 11.4477 42.5 12 42.5Z" fill="#EE3E54"/>
<path d="M33.25 40.5C33.9404 40.5 34.5 39.9404 34.5 39.25C34.5 38.5596 33.9404 38 33.25 38C32.5596 38 32 38.5596 32 39.25C32 39.9404 32.5596 40.5 33.25 40.5Z" fill="white"/>
<path d="M8 24.5C8.27614 24.5 8.5 24.2761 8.5 24C8.5 23.7239 8.27614 23.5 8 23.5C7.72386 23.5 7.5 23.7239 7.5 24C7.5 24.2761 7.72386 24.5 8 24.5Z" fill="white"/>
<path d="M43 16C43.2761 16 43.5 15.7761 43.5 15.5C43.5 15.2239 43.2761 15 43 15C42.7239 15 42.5 15.2239 42.5 15.5C42.5 15.7761 42.7239 16 43 16Z" fill="#F1BC19"/>
<path d="M40 34C40.5523 34 41 33.5523 41 33C41 32.4477 40.5523 32 40 32C39.4477 32 39 32.4477 39 33C39 33.5523 39.4477 34 40 34Z" fill="white"/>
<path d="M25 31.5C17 31.5 11 28.7 11 25C11 21.3 17 18.5 25 18.5C33 18.5 39 21.3 39 25C39 28.7 33 31.5 25 31.5ZM25 20.45C17.85 20.45 12.85 22.85 12.85 25C12.85 27.15 17.85 29.55 25 29.55C32.15 29.55 37.15 27.15 37.15 25C37.15 22.85 32.15 20.45 25 20.45Z" fill="#77CBD2"/>
<path d="M25.0004 31.85C16.8004 31.85 10.6504 28.9 10.6504 25C10.6504 21.1 16.8004 18.15 25.0004 18.15C33.2004 18.15 39.3504 21.1 39.3504 25C39.3504 28.9 33.2004 31.85 25.0004 31.85ZM25.0004 18.85C17.2004 18.85 11.3504 21.5 11.3504 25C11.3504 28.5 17.2004 31.15 25.0004 31.15C32.8004 31.15 38.6504 28.5 38.6504 25C38.6504 21.5 32.8004 18.85 25.0004 18.85ZM25.0004 29.9C17.5504 29.9 12.5004 27.35 12.5004 25C12.5004 22.65 17.5004 20.1 25.0004 20.1C32.5004 20.1 37.5004 22.65 37.5004 25C37.5004 27.35 32.4504 29.9 25.0004 29.9ZM25.0004 20.8C17.7004 20.8 13.2004 23.25 13.2004 25C13.2004 26.75 17.7004 29.2 25.0004 29.2C32.3004 29.2 36.8004 26.75 36.8004 25C36.8004 23.25 32.3004 20.8 25.0004 20.8Z" fill="#472B29"/>
<path d="M19.7504 37.6C19.1004 37.6 18.5504 37.45 18.0504 37.15C15.0004 35.35 15.6504 28.8 19.6004 21.85C22.3504 17 26.0504 13.35 29.0504 12.55C30.1504 12.25 31.1504 12.35 31.9504 12.8C35.0004 14.6 34.3504 21.15 30.4004 28.1C27.6504 32.95 23.9504 36.6 20.9504 37.4C20.5504 37.55 20.1504 37.6 19.7504 37.6ZM30.2504 14.25C30.0504 14.25 29.8004 14.3 29.5004 14.35C27.0504 15 23.7004 18.4 21.2004 22.75C17.7504 28.8 17.2004 34.45 18.9504 35.5C19.3004 35.7 19.8004 35.75 20.4504 35.6C22.9004 34.95 26.2504 31.55 28.7504 27.2C32.2004 21.15 32.7504 15.5 31.0004 14.45C30.8004 14.35 30.5504 14.25 30.2504 14.25Z" fill="#77CBD2"/>
<path d="M19.7505 37.95C19.0505 37.95 18.4005 37.8 17.8505 37.45C14.6005 35.55 15.2005 28.75 19.2505 21.65C22.0505 16.7 25.8505 13 28.9005 12.2C30.1005 11.9 31.2005 12 32.1005 12.5C35.3505 14.4 34.7505 21.2 30.7005 28.3C27.9005 33.25 24.1005 36.95 21.0505 37.75C20.6005 37.9 20.2005 37.95 19.7505 37.95ZM30.2505 12.75C29.9005 12.75 29.5005 12.8 29.1505 12.9C26.2505 13.65 22.6505 17.25 19.9505 22C16.1505 28.65 15.4505 35.15 18.3005 36.85C19.0005 37.25 19.9505 37.35 20.9505 37.1C23.8505 36.35 27.4505 32.75 30.1505 28C33.9505 21.35 34.7005 14.85 31.8005 13.2C31.3005 12.9 30.8005 12.75 30.2505 12.75ZM19.7505 36.1C19.4005 36.1 19.1005 36 18.8005 35.85C16.6005 34.6 17.6005 28.4 20.9005 22.6C23.4505 18.15 26.8505 14.7 29.4005 14.05C30.1005 13.85 30.7005 13.9 31.1505 14.15C33.3505 15.4 32.3505 21.6 29.0505 27.4C26.5005 31.85 23.1005 35.3 20.5505 35.95C20.3005 36.05 20.0005 36.1 19.7505 36.1ZM30.2505 14.6C30.0505 14.6 29.8505 14.65 29.6005 14.7C27.2005 15.35 23.9505 18.65 21.5005 22.95C17.9505 29.2 17.7005 34.4 19.1505 35.25C19.4505 35.4 19.8505 35.45 20.3505 35.3C22.7505 34.65 26.0005 31.35 28.4505 27.05C32.0005 20.8 32.2505 15.6 30.8005 14.75C30.6505 14.65 30.4505 14.6 30.2505 14.6Z" fill="#472B29"/>
<path d="M30.2504 37.5999C29.8504 37.5999 29.4504 37.55 29.0504 37.45C26.1004 36.65 22.4004 32.9999 19.6004 28.15C15.6504 21.2 15.0004 14.65 18.0504 12.85C18.8504 12.4 19.8504 12.3 20.9504 12.6C23.9004 13.4 27.6004 17.05 30.4004 21.9C34.3504 28.8499 35.0004 35.4 31.9504 37.2C31.4504 37.45 30.8504 37.5999 30.2504 37.5999ZM19.7504 14.25C19.4504 14.25 19.2004 14.3 19.0004 14.45C17.2004 15.5 17.8004 21.2 21.2504 27.2C23.7504 31.55 27.0504 34.9499 29.5504 35.5999C30.1504 35.7499 30.6504 35.75 31.0504 35.5C32.8504 34.45 32.2504 28.75 28.8004 22.75C26.3004 18.4 23.0004 15 20.5004 14.35C20.2004 14.3 20.0004 14.25 19.7504 14.25Z" fill="#77CBD2"/>
<path d="M30.2503 37.95C29.8503 37.95 29.4003 37.9 28.9503 37.75C25.9003 36.95 22.1003 33.2 19.3003 28.3C15.2503 21.2 14.6503 14.4 17.9003 12.5C18.8003 12 19.9003 11.85 21.1003 12.2C24.1503 13 27.9503 16.75 30.7503 21.65C34.8003 28.75 35.4003 35.55 32.1503 37.45C31.5503 37.8 30.9503 37.95 30.2503 37.95ZM19.7503 12.75C19.2003 12.75 18.6503 12.9 18.2003 13.15C15.3503 14.8 16.1003 21.35 19.8503 27.95C22.5503 32.7 26.2003 36.3 29.0503 37.05C30.0503 37.3 30.9503 37.25 31.7003 36.8C34.5503 35.15 33.8003 28.6 30.0503 21.95C27.3503 17.2 23.7003 13.6 20.8503 12.85C20.5003 12.8 20.1003 12.75 19.7503 12.75ZM30.2503 36.1C30.0003 36.1 29.7503 36.05 29.4503 36C26.9003 35.3 23.5003 31.85 20.9503 27.45C17.6503 21.65 16.6503 15.5 18.8503 14.2C19.3003 13.95 19.9003 13.9 20.6003 14.1C23.1503 14.8 26.5503 18.25 29.1003 22.65C32.4003 28.45 33.4003 34.6 31.2003 35.9C30.9003 36 30.6003 36.1 30.2503 36.1ZM19.7503 14.6C19.5003 14.6 19.3003 14.65 19.1503 14.75C17.7503 15.6 17.9503 20.8 21.5003 27.05C23.9503 31.35 27.2003 34.65 29.6003 35.3C30.1003 35.45 30.5503 35.4 30.8003 35.25C32.2003 34.4 32.0003 29.2 28.4503 22.95C26.0003 18.65 22.8003 15.35 20.4003 14.7C20.1503 14.65 19.9503 14.6 19.7503 14.6Z" fill="#472B29"/>
<path d="M25 27.75C26.5188 27.75 27.75 26.5188 27.75 25C27.75 23.4812 26.5188 22.25 25 22.25C23.4812 22.25 22.25 23.4812 22.25 25C22.25 26.5188 23.4812 27.75 25 27.75Z" fill="#77CBD2"/>
<path d="M25 28C23.35 28 22 26.65 22 25C22 23.35 23.35 22 25 22C26.65 22 28 23.35 28 25C28 26.65 26.65 28 25 28ZM25 22.5C23.6 22.5 22.5 23.6 22.5 25C22.5 26.4 23.6 27.5 25 27.5C26.4 27.5 27.5 26.4 27.5 25C27.5 23.6 26.4 22.5 25 22.5Z" fill="#472B29"/>
<path d="M24.9996 26.9C24.9496 26.9 24.8496 26.85 24.8496 26.75C24.8496 26.65 24.8996 26.6 24.9996 26.6C25.1996 26.6 25.3496 26.55 25.5496 26.5C25.7996 26.4 25.9996 26.25 26.1996 26.1C26.2496 26.05 26.3496 26.05 26.3996 26.1C26.4496 26.15 26.4496 26.25 26.3996 26.3C26.1996 26.5 25.9496 26.7 25.6496 26.8C25.4496 26.85 25.1996 26.9 24.9996 26.9Z" fill="#472B29"/>
<path d="M26.5496 25.9H26.4996C26.4496 25.85 26.3996 25.8 26.4496 25.75C26.5496 25.55 26.5996 25.3 26.5996 25.05C26.5996 24.4 26.2496 23.85 25.6996 23.6C25.6496 23.55 25.5996 23.5 25.6496 23.45C25.6996 23.4 25.7496 23.35 25.7996 23.4C26.4496 23.7 26.8496 24.35 26.8496 25.1C26.8496 25.4 26.7996 25.65 26.6496 25.95C26.6496 25.85 26.5996 25.9 26.5496 25.9Z" fill="#472B29"/>
<path d="M24.0504 23.65C24.0004 23.65 23.9504 23.65 23.9504 23.6C23.9004 23.55 23.9504 23.45 24.0004 23.45C24.3004 23.25 24.6504 23.15 25.0004 23.15C25.0504 23.15 25.1504 23.2 25.1504 23.3C25.1504 23.4 25.1004 23.45 25.0004 23.45C24.7004 23.45 24.4004 23.55 24.1004 23.7C24.1004 23.65 24.1004 23.65 24.0504 23.65Z" fill="#472B29"/>
<path d="M26.7496 18.4C26.6996 18.4 26.6996 18.4 26.6496 18.35C24.7996 16.05 23.0496 14.55 21.4496 13.9C21.3996 13.85 21.3496 13.8 21.3996 13.75C21.4496 13.7 21.4996 13.65 21.5496 13.7C23.1996 14.4 24.9496 15.95 26.8496 18.25C26.8996 18.3 26.8996 18.4 26.8496 18.45C26.7996 18.35 26.7996 18.4 26.7496 18.4Z" fill="#472B29"/>
<path d="M18.2498 13.9C18.1998 13.9 18.1998 13.9 18.1498 13.85C18.0998 13.8 18.0998 13.7 18.1498 13.65C18.2998 13.55 19.0998 13 20.5498 13.3C20.5998 13.3 20.6498 13.4 20.6498 13.45C20.6498 13.5 20.5498 13.55 20.4998 13.55C19.1498 13.25 18.4498 13.75 18.3498 13.85C18.2998 13.85 18.2998 13.9 18.2498 13.9Z" fill="#472B29"/>
<path d="M36.6502 27.75C36.6002 27.75 36.6002 27.7501 36.5502 27.7001C36.5002 27.6501 36.5002 27.55 36.5502 27.5C37.7002 26.55 38.1502 25.4501 37.9002 24.2001C37.9002 24.1501 37.9502 24.05 38.0002 24.05C38.0502 24.05 38.1502 24.1 38.1502 24.15C38.4502 25.45 37.9502 26.7001 36.7002 27.7001C36.7002 27.7501 36.6502 27.75 36.6502 27.75Z" fill="#472B29"/>
<path d="M34.5004 28.95C34.4504 28.95 34.4004 28.9 34.4004 28.85C34.4004 28.8 34.4004 28.7 34.5004 28.7C34.5004 28.7 35.2004 28.45 35.9504 28C36.0004 27.95 36.1004 28 36.1004 28.05C36.1504 28.1 36.1004 28.2 36.0504 28.2C35.2504 28.7 34.5504 28.9 34.5004 28.95Z" fill="#472B29"/>
<path d="M19.5498 36.8C18.1998 36.75 17.3498 35.7501 17.0498 33.9501C17.0498 33.9001 17.0998 33.8 17.1498 33.8C17.1998 33.8 17.2998 33.8501 17.2998 33.9001C17.5998 35.6001 18.3498 36.5 19.5498 36.55C19.5998 36.55 19.6498 36.6001 19.6498 36.7001C19.6998 36.7501 19.6498 36.8 19.5498 36.8Z" fill="#472B29"/>
<path d="M17.0497 32.85C16.9997 32.85 16.9497 32.8 16.8997 32.75C16.8497 31.6 16.9997 30.6 17.0497 30.45C17.0497 30.4 17.1497 30.35 17.1997 30.35C17.2497 30.35 17.2997 30.45 17.2997 30.5C17.2997 30.55 17.0997 31.55 17.1497 32.7C17.1997 32.8 17.1497 32.85 17.0497 32.85Z" fill="#472B29"/>
</svg>
