<svg width="26" height="26" viewBox="0 0 26 26" fill="none" xmlns="http://www.w3.org/2000/svg">
<circle cx="13" cy="13" r="12" stroke="white" stroke-width="2"/>
<path d="M19.4672 17.6787L20.391 18.0614L20.391 18.0614L19.4672 17.6787ZM15.6788 21.4671L16.0615 22.3909L16.0615 22.3909L15.6788 21.4671ZM10.3212 21.4671L9.93853 22.3909L9.93853 22.3909L10.3212 21.4671ZM8.05025 19.9496L8.75736 19.2425L8.75736 19.2425L8.05025 19.9496ZM6.53284 17.6787L5.60896 18.0614L5.60896 18.0614L6.53284 17.6787ZM16.4118 7.07108L15.7707 6.30364L16.4118 7.07108ZM16.588 7.07098L17.2292 6.30356L16.588 7.07098ZM14.1087 9.53777L13.1614 9.85803L14.1087 9.53777ZM14.3939 9.56415L15.2624 10.0599L14.3939 9.56415ZM10.8092 4.08663L10.1438 3.34009L10.8092 4.08663ZM11.0029 4.09794L10.2707 4.77905L11.0029 4.09794ZM10.1438 3.34009C9.38115 4.01983 5 8.20605 5 14.9999H7C7 9.07856 10.8425 5.39644 11.4745 4.83317L10.1438 3.34009ZM15.0561 9.21751C13.9477 5.93895 12.2024 3.91916 11.7351 3.41682L10.2707 4.77905C10.6202 5.1547 12.1734 6.93557 13.1614 9.85803L15.0561 9.21751ZM15.2624 10.0599C15.9998 8.76809 16.8298 8.02489 17.0529 7.83852L15.7707 6.30364C15.4255 6.59202 14.4146 7.51087 13.5255 9.06838L15.2624 10.0599ZM15.9469 7.83839C16.3898 8.20844 19 10.578 19 14.9411H21C21 9.71845 17.8719 6.84056 17.2292 6.30356L15.9469 7.83839ZM19 14.9411V14.9999H21V14.9411H19ZM19 14.9999C19 15.7878 18.8448 16.568 18.5433 17.296L20.391 18.0614C20.7931 17.0908 21 16.0505 21 14.9999H19ZM18.5433 17.296C18.2417 18.024 17.7998 18.6854 17.2426 19.2425L18.6569 20.6568C19.3997 19.9139 19.989 19.032 20.391 18.0614L18.5433 17.296ZM17.2426 19.2425C16.6855 19.7997 16.0241 20.2416 15.2961 20.5432L16.0615 22.3909C17.0321 21.9889 17.914 21.3996 18.6569 20.6568L17.2426 19.2425ZM15.2961 20.5432C14.5681 20.8447 13.7879 20.9999 13 20.9999V22.9999C14.0506 22.9999 15.0909 22.793 16.0615 22.3909L15.2961 20.5432ZM13 20.9999C12.2121 20.9999 11.4319 20.8447 10.7039 20.5432L9.93853 22.3909C10.9091 22.793 11.9494 22.9999 13 22.9999V20.9999ZM10.7039 20.5432C9.97595 20.2416 9.31451 19.7997 8.75736 19.2425L7.34314 20.6568C8.08601 21.3996 8.96793 21.9889 9.93853 22.3909L10.7039 20.5432ZM8.75736 19.2425C8.20021 18.6854 7.75825 18.024 7.45672 17.296L5.60896 18.0614C6.011 19.032 6.60028 19.9139 7.34315 20.6568L8.75736 19.2425ZM7.45672 17.296C7.15519 16.568 7 15.7878 7 14.9999H5C5 16.0505 5.20693 17.0908 5.60896 18.0614L7.45672 17.296ZM17.0529 7.83852C16.7344 8.10461 16.2677 8.10643 15.9469 7.83839L17.2292 6.30356C16.8053 5.94946 16.1922 5.95149 15.7707 6.30364L17.0529 7.83852ZM13.1614 9.85803C13.4857 10.8172 14.7768 10.9105 15.2624 10.0599L13.5255 9.06838C13.8788 8.44952 14.8172 8.51106 15.0561 9.21751L13.1614 9.85803ZM11.4745 4.83317C11.1037 5.16364 10.5681 5.09875 10.2707 4.77905L11.7351 3.41682C11.3327 2.98428 10.6297 2.90708 10.1438 3.34009L11.4745 4.83317Z" fill="white"/>
<path d="M12.4581 12.4102L11.8311 11.6311L11.8311 11.6311L12.4581 12.4102ZM9.04628 17.3844L8.05717 17.2372L8.05717 17.2372L9.04628 17.3844ZM13.5421 12.4102L14.169 11.6311L13.5421 12.4102ZM16.9537 17.3844L15.9646 17.5316L15.9646 17.5316L16.9537 17.3844ZM16.958 17.4184L15.9634 17.5223C15.9648 17.5358 15.9665 17.5492 15.9685 17.5626L16.958 17.4184ZM9.04197 17.4184L10.0315 17.5625C10.0335 17.5492 10.0352 17.5358 10.0366 17.5223L9.04197 17.4184ZM11.8311 11.6311C11.2968 12.0611 10.4673 12.793 9.71968 13.7317C8.97947 14.6612 8.26126 15.8658 8.05717 17.2372L10.0354 17.5316C10.1667 16.6492 10.653 15.7702 11.2842 14.9777C11.9078 14.1946 12.6165 13.5663 13.085 13.1893L11.8311 11.6311ZM14.169 11.6311C13.4825 11.0787 12.5176 11.0787 11.8311 11.6311L13.085 13.1893C13.067 13.2038 13.0365 13.2168 13.0001 13.2168C12.9636 13.2168 12.9331 13.2038 12.9151 13.1893L14.169 11.6311ZM17.9428 17.2372C17.7387 15.8658 17.0206 14.6612 16.2804 13.7318C15.5328 12.793 14.7033 12.0611 14.169 11.6311L12.9151 13.1893C13.3836 13.5663 14.0922 14.1946 14.7159 14.9777C15.347 15.7702 15.8333 16.6492 15.9646 17.5316L17.9428 17.2372ZM17.9526 17.3146C17.9499 17.2888 17.9467 17.263 17.9428 17.2372L15.9646 17.5316C15.9642 17.5286 15.9638 17.5255 15.9634 17.5223L17.9526 17.3146ZM15.9685 17.5626C15.9892 17.7048 16 17.8508 16 18H18C18 17.7541 17.9822 17.5117 17.9476 17.2743L15.9685 17.5626ZM16 18C16 19.6568 14.6569 21 13 21V23C15.7614 23 18 20.7614 18 18H16ZM13 21C11.3431 21 10 19.6568 10 18H8C8 20.7614 10.2386 23 13 23V21ZM10 18C10 17.8508 10.0108 17.7048 10.0315 17.5625L8.05241 17.2743C8.01783 17.5117 8 17.7541 8 18H10ZM8.05717 17.2372C8.05334 17.2629 8.05008 17.2887 8.04738 17.3145L10.0366 17.5223C10.0362 17.5255 10.0358 17.5286 10.0354 17.5316L8.05717 17.2372Z" fill="white"/>
</svg>
