<svg width="26" height="26" viewBox="0 0 26 26" fill="none" xmlns="http://www.w3.org/2000/svg">
<circle cx="13" cy="13" r="12" stroke="white" stroke-width="2"/>
<path d="M16 18.3333H11.2C10.0799 18.3333 9.51984 18.3333 9.09202 18.1153C8.71569 17.9236 8.40973 17.6176 8.21799 17.2413C8 16.8134 8 16.2534 8 15.1333V10.4951C8 9.72395 8 9.3384 8.1049 9.0274C8.3045 8.43566 8.76904 7.97113 9.36077 7.77153C9.67178 7.66663 10.0573 7.66663 10.8284 7.66663H11.0572C11.1696 7.66663 11.2258 7.66663 11.28 7.66957C11.735 7.69426 12.1679 7.87358 12.5071 8.17785C12.5474 8.21406 12.5872 8.25381 12.6667 8.33329V8.33329C12.7462 8.41278 12.7859 8.45252 12.8263 8.48874C13.1655 8.793 13.5984 8.97233 14.0534 8.99702C14.1075 8.99996 14.1637 8.99996 14.2761 8.99996H15C15.3096 8.99996 15.4644 8.99996 15.5944 9.01707C16.4919 9.13522 17.1981 9.84144 17.3162 10.7389C17.3333 10.8689 17.3333 11.0237 17.3333 11.3333V11.3333" stroke="white" stroke-width="2" stroke-linecap="round"/>
<path d="M9.31584 13.9471C9.56132 13.1288 9.68406 12.7197 9.92696 12.4164C10.1414 12.1487 10.4211 11.9406 10.7392 11.8121C11.0995 11.6666 11.5266 11.6666 12.3809 11.6666H15.6991C17.1567 11.6666 17.8856 11.6666 18.372 11.9707C18.7981 12.237 19.1083 12.6539 19.2409 13.1385C19.3924 13.6919 19.183 14.39 18.7641 15.7862L18.6842 16.0526C18.4387 16.8708 18.3159 17.2799 18.073 17.5832C17.8586 17.851 17.5789 18.0591 17.2608 18.1875C16.9005 18.333 16.4734 18.333 15.6191 18.333H10.1505C9.42163 18.333 9.05721 18.333 8.81398 18.181C8.60096 18.0478 8.44587 17.8394 8.37954 17.5971C8.3038 17.3204 8.40852 16.9714 8.61796 16.2733L9.31584 13.9471Z" stroke="white" stroke-width="2"/>
<path d="M12 15L16 15" stroke="white" stroke-width="2" stroke-linecap="round"/>
</svg>
